<svg width="14" height="14" viewBox="0 0 14 14" fill="none" xmlns="http://www.w3.org/2000/svg">
<path d="M1.1665 6.99984C1.1665 10.2216 3.77809 12.8332 6.99984 12.8332C10.2216 12.8332 12.8332 10.2216 12.8332 6.99984C12.8332 3.77809 10.2216 1.1665 6.99984 1.1665C3.77809 1.1665 1.1665 3.77809 1.1665 6.99984Z" stroke="#05BBD3" stroke-linecap="round" stroke-linejoin="round"/>
<path d="M7.58335 1.1958C7.58335 1.1958 9.33335 3.49997 9.33335 6.99997C9.33335 10.5 7.58335 12.8041 7.58335 12.8041M6.41668 12.8041C6.41668 12.8041 4.66668 10.5 4.66668 6.99997C4.66668 3.49997 6.41668 1.1958 6.41668 1.1958M1.53418 9.04163H12.4658M1.53418 4.9583H12.4658" stroke="#05BBD3" stroke-linecap="round" stroke-linejoin="round"/>
</svg>
